<svg t="1620387713808" class="icon" viewBox="0 0 1024 1024" version="1.1" xmlns="http://www.w3.org/2000/svg" p-id="2164"
     width="200" height="200">
    <path d="M512 934.956522c221.295304 0 400.695652-179.400348 400.695652-400.695652S733.295304 133.565217 512 133.565217 111.304348 312.965565 111.304348 534.26087s179.400348 400.695652 400.695652 400.695652z"
          fill="#0B77E3" fill-opacity=".2" p-id="2165"></path>
    <path d="M901.164522 796.66087A33.391304 33.391304 0 0 1 871.780174 845.913043H152.219826a33.391304 33.391304 0 0 1-29.384348-49.252173L482.615652 130.014609a33.391304 33.391304 0 0 1 58.768696 0l359.780174 666.646261zM521.794783 140.588522a11.130435 11.130435 0 0 0-19.589566 0L142.425043 807.234783a11.130435 11.130435 0 0 0 9.794783 16.417391h719.560348a11.130435 11.130435 0 0 0 9.794783-16.417391L521.794783 140.588522z"
          fill="#005CB9" p-id="2166"></path>
    <path d="M521.794783 140.577391l359.780174 666.657392a11.130435 11.130435 0 0 1-9.794783 16.417391H152.219826a11.130435 11.130435 0 0 1-9.794783-16.417391L502.205217 140.588522a11.130435 11.130435 0 0 1 19.589566 0z"
          fill="#FFFFFF" p-id="2167"></path>
</svg>