<svg t="1620309616270" class="icon" viewBox="0 0 1024 1024" version="1.1" xmlns="http://www.w3.org/2000/svg" p-id="3855" width="200" height="200"><path d="M581.79968 840.8064c-0.06784-0.23168-0.12288-0.4544-0.18816-0.69248H433.42976c-0.06912 0.23808-0.12288 0.4608-0.19072 0.69248-16.38656 54.08128-40.61696 94.41408-71.59808 120.42752h291.7568c-30.97984-26.01344-55.21152-66.34624-71.59808-120.42752M57.64608 770.90304c0 19.11168 15.4944 34.60608 34.60608 34.60608h830.53696c19.11168 0 34.6048-15.4944 34.6048-34.60608v-103.81568H57.64608v103.81568zM922.78912 61.48608H92.25088c-19.1104 0-34.60608 15.4944-34.60608 34.60608v536.38912h899.74784V96.09088c0.00128-19.1104-15.49312-34.6048-34.60352-34.6048" fill="#FFFFFF" p-id="3856"></path><path d="M299.88608 502.70848V295.07456h-86.5152V589.2224h449.8752v-86.51392z" fill="#F7D54A" p-id="3857"></path><path d="M317.18912 156.65152h484.48v328.75392h-484.48z" fill="#86AEDD" p-id="3858"></path><path d="M507.52 693.04064c-23.88864 0-43.25632 19.3728-43.25632 43.2576 0 23.88864 19.36896 43.25632 43.25632 43.25632 23.88864 0 43.2576-19.36768 43.2576-43.25632 0-23.88608-19.36896-43.2576-43.2576-43.2576" fill="#EE6A56" p-id="3859"></path><path d="M92.25088 96.09088v536.38912h17.30304V113.39392h795.93216v519.08608h17.30304V96.09088H92.25088zM507.52 87.44064a8.65792 8.65792 0 0 0 8.65152-8.65152 8.65792 8.65792 0 0 0-8.65152-8.65152 8.65792 8.65792 0 0 0-8.65152 8.65152 8.65792 8.65792 0 0 0 8.65152 8.65152" fill="#313E4B" p-id="3860"></path><path d="M386.4 520.01152h-17.30304v17.30304h17.30304v-17.30304zM247.97696 312.37632h-17.30304v17.30304h17.30304v-17.30304z m0 34.60736h-17.30304v17.30304h17.30304v-17.30304z m103.81696 173.02784h-17.30304v17.30304h17.30304v-17.30304z m34.60608 69.21088h17.30304v-17.30304h-17.30304v17.30304z m276.84608-34.6048h-17.30432v17.30304h17.30432v-17.30304z m-69.21216 34.6048h17.30432v-17.30304h-17.30432v17.30304z m-242.24 0h17.30304v-17.30304h-17.30304v17.30304z m103.81696-69.21088h-17.30304v17.30304h17.30304v-17.30304z m173.02912 69.21088h17.30304v-17.30304h-17.30304v17.30304z m-380.66304-103.81696h-17.30304v17.30304h17.30304v-17.30304z m173.02912 34.60608h-17.30304v17.30304h17.30304v-17.30304zM265.28 364.28544h17.30304V346.9824H265.28v17.30304z m51.90912 155.72608h-17.30304v17.30304h17.30304v-17.30304z m242.24 69.21088h17.30304v-17.30304h-17.30304v17.30304zM265.28 468.10368h17.30304v-17.30304H265.28v17.30304z m17.30304-155.72736H265.28v17.30304h17.30304v-17.30304zM455.61088 589.2224h17.30304v-17.30304h-17.30304v17.30304zM247.97696 416.19456h-17.30304v17.30304h17.30304v-17.30304z m17.30304-17.30304h17.30304v-17.30304H265.28v17.30304zM524.82304 589.2224h17.30432v-17.30304h-17.30432v17.30304zM265.28 433.49632h17.30304v-17.30304H265.28v17.30304z m51.90912 155.72608h17.30304v-17.30304h-17.30304v17.30304z m173.02784 0H507.52v-17.30304h-17.30304v17.30304z m-190.33088-86.51392h-17.30304v17.30304h17.30304v-17.30304z m-34.60608 0h17.30304v-17.30304H265.28v17.30304z m-17.30304-51.90784h-17.30304v17.30304h17.30304v-17.30304zM421.00608 589.2224h17.30304v-17.30304h-17.30304v17.30304zM247.97696 381.58848h-17.30304v17.30304h17.30304v-17.30304z m0 173.02912h17.30304v-17.30432h-17.30304v17.30432z m86.51392-51.90912h-17.30304v17.30304h17.30304v-17.30304z m-51.90784 51.90912h17.30304v-17.30432h-17.30304v17.30432z m17.30304-86.51392h-17.30304v17.30304h17.30304v-17.30304zM265.28 329.68064h-17.30304v17.30304h17.30304v-17.30304z m17.30304 190.33088H265.28v17.30304h17.30304v-17.30304z m86.51392-17.30304h-17.30304v17.30304h17.30304v-17.30304z m-51.90784 51.90912h17.30304v-17.30432h-17.30304v17.30432z m34.6048 0h17.30304v-17.30432h-17.30304v17.30432z m-51.90784-190.33216h-17.30304v17.30304h17.30304v-17.30304z m0 34.60608h-17.30304v17.30304h17.30304v-17.30304z m-34.60608 103.81696h-17.30304v17.30304h17.30304v-17.30304z m34.60608-69.21216h-17.30304v17.30304h17.30304v-17.30304z m311.45088 69.21216h-17.30432v17.30304h17.30432v-17.30304z m-69.21088 0h-17.30432v17.30304h17.30432v-17.30304zM265.28 364.28544h-17.30304v17.30304h17.30304v-17.30304z m0 34.60608h-17.30304v17.30304h17.30304v-17.30304z m311.45088 103.81696h-17.30304v17.30304h17.30304v-17.30304z m69.21216 0h-17.30304v17.30304h17.30304v-17.30304zM299.88608 329.68064h-17.30304v17.30304h17.30304v-17.30304z m103.81696 173.02784h-17.30304v17.30304h17.30304v-17.30304z m34.60608 0h-17.30304v17.30304h17.30304v-17.30304zM265.28 468.10368h-17.30304v17.30304h17.30304v-17.30304z m242.24 34.6048h-17.30304v17.30304H507.52v-17.30304z m-242.24-69.21216h-17.30304v17.30304h17.30304v-17.30304z m224.93696 86.5152h-17.30304v17.30304h17.30304v-17.30304z m-17.30304-17.30304h-17.30304v17.30304h17.30304v-17.30304z m121.12 51.90912h17.30432v-17.30432h-17.30432v17.30432z m-380.66304 0h17.30304v-17.30432h-17.30304v17.30432z m0 34.6048h17.30304v-17.30304h-17.30304v17.30304z m346.05824-34.6048h17.30304v-17.30432h-17.30304v17.30432z m-346.05824-69.21216h17.30304v-17.30304h-17.30304v17.30304z m415.26912 34.60608h-17.30304v17.30304h17.30304v-17.30304z m-415.26912 0h17.30304v-17.30304h-17.30304v17.30304z m311.45216 0H507.52v17.30304h17.30304v-17.30304z m-242.24 69.21088h17.30304v-17.30304h-17.30304v17.30304z m276.84608-69.21088h-17.30304v17.30304h17.30304v-17.30304z m34.6048 0h-17.30304v17.30304h17.30304v-17.30304zM247.97696 589.2224h17.30304v-17.30304h-17.30304v17.30304z m-34.60608-276.84608h17.30304v-17.30304h-17.30304v17.30304z m86.5152-17.30176h-17.30304v17.30304h17.30304v-17.30304z m121.12 259.54304h17.30304v-17.30432h-17.30304v17.30432z m-34.60608 0h17.30304v-17.30432h-17.30304v17.30432z m138.42304 0h17.30432v-17.30432h-17.30432v17.30432zM265.28 295.07456h-17.30304v17.30304h17.30304v-17.30304z m-51.90912 51.90912h17.30304v-17.30304h-17.30304v17.30304z m0 69.21088h17.30304v-17.30304h-17.30304v17.30304z m0 34.60608h17.30304V433.4976h-17.30304v17.30304z m0-69.21216h17.30304v-17.30304h-17.30304v17.30304z m242.24 173.02912h17.30304v-17.30432h-17.30304v17.30432z m34.60608 0H507.52v-17.30432h-17.30304v17.30432z m-34.60608-242.24128h-17.30304v17.30304h17.30304v-17.30304z m17.30304 17.30432h-17.30304v17.30304h17.30304v-17.30304z m-34.6048 0h-17.30304v17.30304h17.30304v-17.30304z m69.21088 0h-17.30304v17.30304H507.52v-17.30304z m103.81696 0h-17.30432v17.30304h17.30432v-17.30304z m-69.21088 0h-17.30432v17.30304h17.30432v-17.30304z m-138.42304 0h-17.30304v17.30304h17.30304v-17.30304z m173.02784 0h-17.30304v17.30304h17.30304v-17.30304z m-207.63392 69.21088h-17.30304v17.30304h17.30304v-17.30304z m51.90912 51.90912h17.30304V433.4976h-17.30304v17.30304z m34.6048 0h17.30304V433.4976h-17.30304v17.30304z m-69.21088 0h17.30304V433.4976h-17.30304v17.30304z m207.63392-69.21216h17.30432v-17.30304h-17.30432v17.30304z m-242.24 69.21216h17.30304V433.4976h-17.30304v17.30304z m17.30304-86.5152h-17.30304v17.30304h17.30304v-17.30304z m0-34.6048h-17.30304v17.30304h17.30304v-17.30304z m86.51392 17.30304h-17.30304v17.30304h17.30304v-17.30304z m-34.6048 0h-17.30304v17.30304h17.30304v-17.30304z m69.21088 103.81696H507.52V433.4976h-17.30304v17.30304z m-103.81696-103.81696h-17.30304v17.30304h17.30304v-17.30304z m207.63392 69.21088h17.30432v-17.30304h-17.30432v17.30304z m-34.6048-69.21088h-17.30304v17.30304h17.30304v-17.30304z m-173.02912 34.6048h-17.30304v17.30304h17.30304v-17.30304z m103.81696-34.6048h-17.30304v17.30304h17.30304v-17.30304z m34.60608 0H507.52v17.30304h17.30304v-17.30304zM507.52 433.49632h17.30304v-17.30304H507.52v17.30304z m34.60608 0h17.30304v-17.30304h-17.30304v17.30304z m34.6048 0h17.30304v-17.30304h-17.30304v17.30304z m-103.81696 0h17.30304v-17.30304h-17.30304v17.30304z m-69.21088 0h17.30304v-17.30304h-17.30304v17.30304z m34.60608 0h17.30304v-17.30304h-17.30304v17.30304z m-69.21216 0h17.30304v-17.30304h-17.30304v17.30304z m224.93696 17.30432h17.30432V433.4976h-17.30432v17.30304z m-190.33088 17.30304h17.30304v-17.30304h-17.30304v17.30304z m34.60608 0h17.30304v-17.30304h-17.30304v17.30304z m-190.33216 51.90784h-17.30304v17.30304h17.30304v-17.30304z m103.81696-103.81696h-17.30304v17.30304h17.30304v-17.30304zM507.52 468.10368h17.30304v-17.30304H507.52v17.30304z m-138.42304 0h17.30304v-17.30304h-17.30304v17.30304z m-34.60608 0h17.30304v-17.30304h-17.30304v17.30304z m17.30304-86.5152h-17.30304v17.30304h17.30304v-17.30304z m276.84608 0h17.30304v-17.30304h-17.30304v17.30304z m0-34.6048h17.30304v-17.30304h-17.30304v17.30304z m-86.51392 121.12h17.30304v-17.30304h-17.30304v17.30304z m86.51392-51.90912h17.30304v-17.30304h-17.30304v17.30304z m-51.90912 51.90912h17.30304v-17.30304h-17.30304v17.30304z m51.90912-17.30304h17.30304V433.4976h-17.30304v17.30304z m-17.30304 17.30304h17.30304v-17.30304h-17.30304v17.30304zM421.00608 312.37632h-17.30304v17.30304h17.30304v-17.30304z m190.33088 51.90912h17.30304V346.9824h-17.30304v17.30304z m0 34.60608h17.30304v-17.30304h-17.30304v17.30304z m17.30304-86.5152h-17.30304v17.30304h17.30304v-17.30304z m-69.21088 138.42432h17.30304V433.4976h-17.30304v17.30304z m34.6048-138.42432h-17.30304v17.30304h17.30304v-17.30304z m0 34.60736h-17.30304v17.30304h17.30304v-17.30304z m17.30304 86.51264h17.30304v-17.30304h-17.30304v17.30304z m-259.54304-121.12h-17.30304v17.30304h17.30304v-17.30304z m173.02912 138.42432h17.30432V433.4976h-17.30432v17.30304zM386.4 312.37632h-17.30304v17.30304h17.30304v-17.30304z m-34.60608 34.60736h-17.30304v17.30304h17.30304v-17.30304z m207.6352-34.60736h-17.30304v17.30304h17.30304v-17.30304z m-34.60608 0H507.52v17.30304h17.30304v-17.30304z m-34.60608 0h-17.30304v17.30304h17.30304v-17.30304z m-17.30304 155.72736h17.30304v-17.30304h-17.30304v17.30304z m155.72608 17.30176h17.30304v-17.30304h-17.30304v17.30304z m-34.60608 0h17.30432v-17.30304h-17.30432v17.30304z m-69.21088 0h17.30432v-17.30304h-17.30432v17.30304z m34.60608 0h17.30304v-17.30304h-17.30304v17.30304z m103.81696-103.81696h-17.30432v17.30304h17.30432v-17.30304z m0 69.21216h-17.30432v17.30304h17.30432v-17.30304z m0-34.60608h-17.30432v17.30304h17.30432v-17.30304z m-207.6352 69.21088h17.30304v-17.30304h-17.30304v17.30304z m-138.42176 0h17.30304v-17.30304h-17.30304v17.30304z m0-34.6048h17.30304V433.4976h-17.30304v17.30304z m0-34.60608h17.30304v-17.30304h-17.30304v17.30304z m259.54176-17.30304h17.30304v-17.30304h-17.30304v17.30304z m86.5152-51.90784h-17.30432v17.30304h17.30432v-17.30304zM386.4 485.40544h17.30304v-17.30304h-17.30304v17.30304z m34.60608 0h17.30304v-17.30304h-17.30304v17.30304z m-69.21216 0h17.30304v-17.30304h-17.30304v17.30304z m17.30304 86.5152h17.30304v-17.30304h-17.30304v17.30304z m-34.60608 0h17.30304v-17.30304h-17.30304v17.30304z m69.21216 0h17.30304v-17.30304h-17.30304v17.30304z m34.60608 0h17.30304v-17.30304h-17.30304v17.30304z m-138.42304 0h17.30304v-17.30304h-17.30304v17.30304z m-69.21216 0h17.30304v-17.30304h-17.30304v17.30304z m34.60608 0h17.30304v-17.30304H265.28v17.30304z m380.66304-34.60736h17.30432v-17.30304h-17.30432v17.30304z m-34.60608 34.60736h17.30304v-17.30304h-17.30304v17.30304z m-34.60608 0h17.30304v-17.30304h-17.30304v17.30304z m51.90912-17.30304h17.30304v-17.30432h-17.30304v17.30432zM507.52 571.92064h17.30304v-17.30304H507.52v17.30304z m-34.60608 0h17.30304v-17.30304h-17.30304v17.30304z m69.21216 0h17.30304v-17.30304h-17.30304v17.30304z m-51.90912-86.5152H507.52v-17.30304h-17.30304v17.30304z m-17.30304-86.51392h17.30304v-17.30304h-17.30304v17.30304z m69.21216-34.60608h-17.30432v17.30304h17.30432v-17.30304z m-69.21216 0h-17.30304v17.30304h17.30304v-17.30304z m86.5152 51.90912h17.30304v-17.30304h-17.30304v17.30304zM507.52 398.89152h17.30304v-17.30304H507.52v17.30304z m69.21088-34.60608h-17.30304v17.30304h17.30304v-17.30304z m-34.6048 34.60608h17.30304v-17.30304h-17.30304v17.30304z m-103.81696-34.60608h-17.30304v17.30304h17.30304v-17.30304z m51.90784 51.90912H507.52v-17.30304h-17.30304v17.30304z m34.60608 0h17.30432v-17.30304h-17.30432v17.30304z m-207.63392-34.60608h17.30304v-17.30304h-17.30304v17.30304z m69.21088 34.60608h17.30304v-17.30304h-17.30304v17.30304z m17.30304-51.90912h-17.30304v17.30304h17.30304v-17.30304z m17.30304 51.90912h17.30304v-17.30304h-17.30304v17.30304z m34.6048 0h17.30304v-17.30304h-17.30304v17.30304z m51.90912-51.90912h-17.30304v17.30304H507.52v-17.30304z m-103.81696-69.21088h-17.30304v17.30304h17.30304v-17.30304z m34.60608 103.81696h17.30304v-17.30304h-17.30304v17.30304z m34.6048-103.81696h-17.30304v17.30304h17.30304v-17.30304z m34.60608 0h-17.30304v17.30304H507.52v-17.30304z m-138.42304 0h-17.30304v17.30304h17.30304v-17.30304z m-51.90784 51.90912h17.30304v-17.30304h-17.30304v17.30304z m0-34.60736h17.30304v-17.30304h-17.30304v17.30304z m121.12-17.30176h-17.30304v17.30304h17.30304v-17.30304z m103.81696 0h-17.30432v17.30304h17.30432v-17.30304z m103.81696 0h-17.30304v17.30304h17.30304v-17.30304z m-34.60608 0h-17.30432v17.30304h17.30432v-17.30304z m-207.63392 103.81696h17.30304v-17.30304h-17.30304v17.30304z m259.54304-86.5152h-17.30432v17.30304h17.30432v-17.30304z m-86.5152-17.30176h-17.30304v17.30304h17.30304v-17.30304z m-149.00352 562.3424a338.68928 338.68928 0 0 1-6.6368 17.30304h8.56704v-17.30304h-1.93024z m19.23328-17.30304h-13.5296c-0.06912 0.23296-0.12288 0.45696-0.19072 0.69248-1.12384 3.7184-2.37824 7.21536-3.58272 10.80704v5.80352h17.30304v-17.30304z m121.12 51.90912h17.30304v-17.30304h-17.30304v17.30304z m-69.21216 0h17.30304v-17.30304h-17.30304v17.30304z m34.6048 0h17.30432v-17.30304h-17.30432v17.30304z m-69.2096 0h17.30304v-17.30304h-17.30304v17.30304z m-34.60736 0h17.30304v-17.30304h-17.30304v17.30304z m51.90912-51.90912h-17.30304v17.30432h17.30304v-17.30432z m103.81696 11.49952c-1.2032-3.59296-2.45888-7.08864-3.58272-10.80704-0.06784-0.23552-0.12288-0.45952-0.18816-0.69248h-13.53088v17.30432h17.30304v-5.8048z m-138.42176 23.10656h17.30304v-17.30304h-17.30304v17.30304z m138.42176-17.30304v17.30304h8.56704a338.96832 338.96832 0 0 1-6.6368-17.30304h-1.93024z m-34.6048-17.30304h-17.30432v17.30432h17.30432v-17.30432z m0 34.60608h17.30304v-17.30304h-17.30304v17.30304z m-69.21216 0h17.30304v-17.30304h-17.30304v17.30304z m34.60608 0h17.30304v-17.30304h-17.30304v17.30304z m0-34.60608h-17.30304v17.30432h17.30304v-17.30432z" fill="" p-id="3861"></path><path d="M926.62912 26.88H96.09088C57.87008 26.88 26.88 57.87008 26.88 96.09088v674.81088c0 38.22208 30.99008 69.21088 69.21088 69.21088h303.5264c-21.04064 62.98496-59.61728 121.12-130.49728 121.12-9.56032 0-17.30304 7.744-17.30304 17.30432 0 9.55008 7.74272 17.30304 17.30304 17.30304h484.48c9.55904 0 17.30304-7.75296 17.30304-17.30304 0-9.56032-7.744-17.30432-17.30304-17.30432-70.88 0-109.45664-58.13504-130.49856-121.12h303.52768c38.2208 0 69.21088-30.9888 69.21088-69.21088V96.09088C995.84 57.87008 964.84992 26.88 926.62912 26.88M657.23776 961.23392H365.48096c30.98112-26.01344 55.21152-66.34624 71.59808-120.42752 0.06784-0.23168 0.13056-0.4544 0.1984-0.69248h148.16512l0.19712 0.69248c16.38656 54.08128 40.61824 94.41408 71.59808 120.42752m303.99616-190.33088c0 19.11168-15.49312 34.60608-34.6048 34.60608H96.09088c-19.1104 0-34.60608-15.4944-34.60608-34.60608v-103.81568h899.74784v103.81568zM61.48608 632.48V96.09088c0-19.1104 15.4944-34.60608 34.60608-34.60608h830.53696c19.11168 0 34.6048 15.4944 34.6048 34.60608v536.38912H61.48608z" fill="" p-id="3862"></path></svg>